<svg width="512" height="512" viewBox="0 0 512 512" fill="none" xmlns="http://www.w3.org/2000/svg">
  <title>LYKON Proposal C — Instinct Fang</title>
  <g fill="#E6B766">
    <path d="M111 367L141 126L226 194L256 82L286 194L371 126L401 367L339 317L302 381L256 336L210 381L173 317L111 367Z"/>
    <path d="M163 251L227 231L256 249L285 231L349 251L304 276L256 266L208 276L163 251Z" fill="#0A0C0D"/>
    <path d="M210 218L238 226L214 241L197 232L210 218Z" fill="#0A0C0D"/>
    <path d="M302 218L274 226L298 241L315 232L302 218Z" fill="#0A0C0D"/>
    <path d="M241 282L256 255L271 282L256 323L241 282Z" fill="#0A0C0D"/>
    <path d="M101 177H206L164 193H101V177Z" opacity=".64"/>
    <path d="M306 177H411V193H348L306 177Z" opacity=".64"/>
  </g>
</svg>
