<svg width="512" height="512" viewBox="0 0 512 512" fill="none" xmlns="http://www.w3.org/2000/svg">
  <title>LYKON Proposal A — Fang Shield</title>
  <g fill="#E6B766">
    <path fill-rule="evenodd" d="M256 45L429 112V244C429 344 367 423 256 470C145 423 83 344 83 244V112L256 45ZM256 84L121 136V242C121 322 170 382 256 422C342 382 391 322 391 242V136L256 84Z"/>
    <path d="M128 246L143 164L214 209L256 112L298 209L369 164L384 246L337 258L303 326L256 283L209 326L175 258L128 246Z"/>
    <path d="M155 238L206 231L229 251L186 259L155 238Z"/>
    <path d="M357 238L306 231L283 251L326 259L357 238Z"/>
    <path d="M211 279L256 294L301 279L277 337L256 313L235 337L211 279Z"/>
    <path d="M219 212L245 226L221 240L206 231L219 212Z" fill="#0A0C0D"/>
    <path d="M293 212L267 226L291 240L306 231L293 212Z" fill="#0A0C0D"/>
    <path d="M248 270L256 257L264 270L256 282L248 270Z" fill="#0A0C0D"/>
  </g>
</svg>
