<svg width="512" height="512" viewBox="0 0 512 512" fill="none" xmlns="http://www.w3.org/2000/svg">
  <title>LYKON Proposal B — Pack Mark</title>
  <g fill="#E6B766">
    <path d="M74 340L132 141L220 211L256 105L292 211L380 141L438 340L350 294L303 401L256 332L209 401L162 294L74 340Z"/>
    <path d="M125 331L171 266L219 286L256 352L293 286L341 266L387 331L322 312L283 348L256 392L229 348L190 312L125 331Z" fill="#0A0C0D"/>
    <path d="M205 222L231 235L209 251L190 244L205 222Z" fill="#0A0C0D"/>
    <path d="M307 222L281 235L303 251L322 244L307 222Z" fill="#0A0C0D"/>
    <path d="M238 275H274L256 303L238 275Z" fill="#0A0C0D"/>
    <path d="M108 177L163 215L88 208L108 177Z" opacity=".58"/>
    <path d="M404 177L349 215L424 208L404 177Z" opacity=".58"/>
  </g>
</svg>
